PathFileType	3	(X/Y/Z)	D:\Jess\Healthy\Labelled\HA23\20251031\SRRun01.trc
DataRate	CameraRate	NumFrames	NumMarkers	Units	OrigDataRate	OrigDataStartFrame	OrigNumFrames
250.0	250.0	6	37	mm	250.0	36250	2501
Frame#	Time	C7			T10			CLAV			LSHO			RSHO			LASIS			RASIS			LPSIS			RPSIS			LILCR			RILCR			LGTR			LTHI			LLTHI			LLEP			LMEP			LPSH			LLSH			LDSH			LLMAL			LMMAL			LTOE			L5TH			LHEE			RGTR			RTHI			RLTHI			RLEP			RMEP			RPSH			RLSH			RDSH			RLMAL			RMMAL			RTOE			R5TH			RHEE			
		X1	Y1	Z1	X2	Y2	Z2	X3	Y3	Z3	X4	Y4	Z4	X5	Y5	Z5	X6	Y6	Z6	X7	Y7	Z7	X8	Y8	Z8	X9	Y9	Z9	X10	Y10	Z10	X11	Y11	Z11	X12	Y12	Z12	X13	Y13	Z13	X14	Y14	Z14	X15	Y15	Z15	X16	Y16	Z16	X17	Y17	Z17	X18	Y18	Z18	X19	Y19	Z19	X20	Y20	Z20	X21	Y21	Z21	X22	Y22	Z22	X23	Y23	Z23	X24	Y24	Z24	X25	Y25	Z25	X26	Y26	Z26	X27	Y27	Z27	X28	Y28	Z28	X29	Y29	Z29	X30	Y30	Z30	X31	Y31	Z31	X32	Y32	Z32	X33	Y33	Z33	X34	Y34	Z34	X35	Y35	Z35	X36	Y36	Z36	X37	Y37	Z37	

1251	144.996	906.9177724326019	1457.388502790331	-1166.86307506225	899.8899545378503	1228.777369976987	-1111.123804869534	861.9083020262667	1366.748414484916	-1294.113543339543	753.970689800023	1466.130480570271	-1164.129991842881	1032.440279290299	1428.321962902085	-1256.493983103387	715.5613163526397	989.7063848306831	-1240.011180155755	978.8420330559007	975.0787093766146	-1263.145280079093	853.1468594873671	1025.360888961039	-1064.20190004709	885.9203531533988	1025.963133001811	-1068.658964562708	689.4047039947592	1060.817926907165	-1175.819349038149	1021.480873685159	1044.583529038348	-1216.598499807448	654.0683982241701	909.6487290225712	-1164.234671261044	756.5104444310857	789.4497173496499	-1346.33362790197	687.3393837077934	674.5666467036174	-1292.616138097115	711.4138049380626	541.4334801287273	-1323.537351738927	nan	nan	nan	764.428062873161	453.8176313951809	-1358.540525827357	713.6915823053426	372.2788174562493	-1232.54769105839	760.8575797650323	283.3130615378553	-1266.9948675327	743.8791080499587	172.4888411518237	-1165.885230153052	nan	nan	nan	747.402910396813	95.40957638408919	-1291.987638950019	709.5669846451482	71.83579292673585	-1253.436562902936	790.0451373475478	149.7587203638222	-1093.750926501328	1041.120384104347	887.9254371456229	-1212.178382970031	931.0812880833195	702.4207411582911	-1235.630260332501	1001.013319619768	646.8052633407169	-1114.638774868874	973.3213955979359	507.5076213171691	-1046.876364539039	nan	nan	nan	920.9905581378488	434.3197047089311	-1057.196127212791	976.081118449214	362.5129516467757	-950.8005768821407	909.028553716973	273.5857341572845	-958.5804720138789	942.092444181945	168.4581626102178	-853.8576700847082	nan	nan	nan	900.0949420643203	54.35709055907216	-931.2498891042691	945.7090532198704	44.86210809178058	-893.1867348925201	903.2840697718315	189.3024681154146	-774.1850741033716	
1252	145	907.1323740254094	1459.17178495029	-1167.143462270889	901.3673793295845	1231.022177460268	-1111.900738636155	861.1690417075547	1369.438425108637	-1293.996146139889	754.7328574140142	1467.955523701125	-1163.175847889799	1031.459545133056	1430.846439145259	-1257.816251466606	715.6642619313196	993.2488712081963	-1240.215392977916	977.7530959503782	976.5892841041746	-1264.897191878002	853.9829809969832	1027.944856299343	-1065.60162913412	886.8151612966642	1028.405335536617	-1070.307339421389	689.8828140851588	1064.704875901991	-1176.4375027164	1020.89700885723	1046.153012825851	-1219.706912216853	653.5661707109547	913.4147247047779	-1164.967906078414	756.2587709521877	793.0806391789476	-1346.854149179688	688.688918725956	676.9787291447229	-1291.475927562454	712.3089333031064	542.8374038354636	-1322.310206290148	nan	nan	nan	764.9654714061211	455.8612091799998	-1360.281052584377	714.6132917595166	369.3888767210757	-1237.689268540508	761.8415585288433	281.9599042702008	-1275.632430280946	745.1835805608997	167.1633557982801	-1179.123455967016	nan	nan	nan	749.1649278588744	95.06219108901995	-1308.142253021495	711.5123078130724	69.7350790921783	-1270.525361483977	791.3884008081502	141.9674727785651	-1107.928811467786	1040.522389920064	889.0394811358389	-1213.887226262709	930.5682942456206	703.0565849316091	-1234.140978036917	1000.605404567433	649.6822837261407	-1111.7493697123	973.4978084875239	511.5981762209672	-1041.648417143023	nan	nan	nan	921.1595963866567	438.1463020527844	-1051.898203361866	976.6864979294064	366.9040721554167	-945.2781647327167	910.104390378601	277.1676525870998	-953.9596377690084	943.3714900617425	171.7870971295991	-849.7696306669799	nan	nan	nan	900.4835182918719	55.04845560150803	-923.5896617697017	946.0683260654506	46.55050799763725	-885.3841891399068	904.882862217919	195.2124143124817	-770.791319140358	
1253	145.004	907.3612598348415	1460.785288266889	-1167.436804157525	902.8189750043924	1233.130209960851	-1112.66262375513	860.4469011570055	1371.976098433597	-1293.883129935483	755.4985055971622	1469.607634063127	-1162.27138554841	1030.469570656474	1433.174582835604	-1259.104798685775	715.8020976032304	996.60710893296	-1240.443736853089	976.6980689371079	977.9398098126702	-1266.584776213803	854.7743153743921	1030.452721960389	-1067.026064267969	887.6627375303091	1030.773440561279	-1071.963237047553	690.4020423116556	1068.405031719943	-1177.096119638102	1020.329949305059	1047.598995719968	-1222.769253635089	653.101273975828	917.0026940932433	-1165.698060094502	755.9203402365954	796.3805310319336	-1347.379275634717	690.0518685453891	679.1429869571618	-1290.039179380741	713.2041056986824	543.9737283014043	-1320.922654015891	nan	nan	nan	765.459138478604	457.7360053987185	-1361.860541089091	715.5176099771128	366.5554488049397	-1242.808483742238	762.7957415851591	280.7432461562764	-1284.161128720836	746.4390150808716	162.1729940998421	-1192.399701965245	nan	nan	nan	751.0667295442984	95.08531527587876	-1324.125739086415	713.5917354046463	68.02665111606225	-1287.530367788964	792.6214290314803	134.6036694895543	-1122.19200843895	1039.956940823663	890.0898281298771	-1215.542982944323	930.1099450051349	703.6709513821487	-1232.718828419286	1000.228316679167	652.5254120759646	-1108.991539439606	973.6686783222837	515.6198277928581	-1036.764933148807	nan	nan	nan	921.255774799689	441.8914331407745	-1046.936910429442	977.2629633583149	371.229134140285	-940.1006154793574	911.0967240859833	280.706132033232	-949.5277861365939	944.6431984509627	175.1481112840785	-845.8305170316794	nan	nan	nan	900.8598774995874	55.88272334203965	-916.0157690204726	946.4235923399667	48.42123159889407	-877.6961019873243	906.5485517828746	201.137136955412	-767.5883393420571	
1254	145.008	907.6016970138966	1462.227745851911	-1167.742870366061	904.2323239978845	1235.089828101909	-1113.407743966876	859.7421554559063	1374.357783321644	-1293.777367304883	756.2599144044435	1471.084877343136	-1161.41902358715	1029.482959797145	1435.298130060547	-1260.355568219467	715.9688110158228	999.760838701955	-1240.695515928689	975.6852451582565	979.1376876082509	-1268.202842703569	855.5188896956408	1032.877718821457	-1068.467361635383	888.4600527902153	1033.061758497936	-1073.617386200474	690.9567023350552	1071.895672914901	-1177.785136134993	1019.778647670713	1048.929179057406	-1225.768786174049	652.6825973446252	920.3919984282489	-1166.415287747865	755.5004577975233	799.3196594773525	-1347.903071766822	691.4062303056885	681.0554712847779	-1288.327563837858	714.0953268150599	544.8559023770539	-1319.400529514011	nan	nan	nan	765.914704839656	459.449591054597	-1363.290297108074	716.4052161958363	363.803272133755	-1247.885122778592	763.7211020650508	279.6769057367845	-1292.554843773799	747.6461705657483	157.542371209329	-1205.662926422088	nan	nan	nan	753.1086190957284	95.48341888444658	-1339.887681676083	715.8064152914502	66.7212817618161	-1304.398284181065	793.7455800341037	127.6912294968671	-1136.480203202852	1039.427620640305	891.0835479055711	-1217.139656462849	929.6956743044292	704.273298858194	-1231.368290727179	999.8824048784792	655.3177675214843	-1106.395219491828	973.828911837679	519.5379135193778	-1032.262506961498	nan	nan	nan	921.2747990435834	445.5226592541549	-1042.3318127626	977.8075891500309	375.4608104069131	-935.2898756739806	911.9944654642952	284.1843338468657	-945.2738268131642	945.9005045880921	178.5372214028751	-842.0076602101753	nan	nan	nan	901.2226080434458	56.8696150940103	-908.5034151185017	946.7719974706578	50.47300322884949	-870.0990338758712	908.2693004788172	207.0613722928597	-764.5440461172616	
1255	145.012	907.850368899644	1463.500149042424	-1168.062089527152	905.5941845135005	1236.890814866764	-1114.134865266838	859.0550731280865	1376.581255920823	-1293.681888516047	757.0084078978991	1472.387010161762	-1160.621426048791	1028.513161236302	1437.211068568314	-1261.565091016436	716.1581033648165	1002.693014198752	-1240.969981154318	974.7215614847703	980.1923555102856	-1269.746990258467	856.2159538665097	1035.212626189575	-1069.916771540866	889.2052331151458	1035.264083668849	-1075.260089551908	691.5391788998352	1075.157257193117	-1178.495765217372	1019.241650326307	1050.152073675873	-1228.687205663019	652.3179703976426	923.5638665727984	-1167.110365080764	755.0076974957747	801.8699265689092	-1348.416903745052	692.7278308399211	682.7144050393327	-1286.370888095025	714.9773154885529	545.4993826954435	-1317.770214502857	nan	nan	nan	766.3380899607633	461.0109109673262	-1364.58064080618	717.2772917417494	361.1550278427795	-1252.896399574975	764.6183485034427	278.7723370380127	-1300.78592503374	748.8070068519856	153.291165898696	-1218.85816522237	nan	nan	nan	755.2877801540291	96.25583807121454	-1355.374489737908	718.1548119378531	65.82457006525952	-1321.071358183608	794.765253787671	121.248226210546	-1150.729841525748	1038.936580107592	892.02686097862	-1218.673110725662	929.3145020446738	704.8712811073502	-1230.097592038188	999.5668191080315	658.0388555773251	-1103.992615980825	973.9728742628939	523.3150683761492	-1028.175777670016	nan	nan	nan	921.2139112895375	449.0060436503217	-1038.099394078608	978.3178526137286	379.570814439487	-930.8638204044837	912.7890696217463	287.5850510122525	-941.1857094613595	947.1368255986929	181.9501641590324	-838.2673293883266	nan	nan	nan	901.5703760765814	58.01760036472013	-901.0261881737624	947.1111014961624	52.7028362921696	-862.5677509766685	910.0319188490713	212.9709765535062	-761.6254926371796	
1256	145.016	908.1035386506182	1464.60553536139	-1168.395407410895	906.8909061754694	1238.524554558754	-1114.843123770973	858.3858795948991	1378.645637744839	-1293.599766734219	757.7345540482225	1473.515381857441	-1159.881306647251	1027.574023850449	1438.909595020721	-1262.730537896119	716.3635668502825	1005.389995555915	-1241.266203914885	973.8124556509503	981.1146884577964	-1271.213610848614	856.8658399918731	1037.4496499586	-1071.364724051907	889.8974489890501	1037.373615422909	-1076.8813493785	692.1400998180829	1078.173447461156	-1179.220380468563	1018.717219958253	1051.276530581864	-1231.504973335029	652.0139160493427	926.501526166319	-1167.774748218915	754.4536388544471	804.0058387192602	-1348.909465232094	693.9912254388003	684.120071248213	-1284.206588528026	715.8437536232449	545.9210264796326	-1316.058440992869	nan	nan	nan	766.7353247219704	462.4297554128584	-1365.740827316736	718.1352638678698	358.6305447783387	-1257.817640952112	765.4878353761096	278.0379984995964	-1308.825542284831	749.9244270953327	149.4332816023432	-1231.927141358729	nan	nan	nan	757.5980189820585	97.39607671077333	-1370.53006154081	720.6323902064188	65.33605484978169	-1337.487969862835	795.687535031407	115.2862722443165	-1164.874762548918	1038.48444332956	892.9247391882969	-1220.140919649564	928.9552177731977	705.4703121772029	-1228.918675384321	999.279469060751	660.6647092120091	-1101.817182236791	974.0945469614992	526.9119563328599	-1024.53636722587	nan	nan	nan	921.0719438685153	452.3068204358352	-1034.252554941495	978.7916418539987	383.5303773857904	-926.8356288023456	913.4748509036116	290.8911409249135	-937.2507254837898	948.3463560294365	185.3826664425571	-834.5758462844209	nan	nan	nan	901.9019514573694	59.33390030093756	-893.5573594568938	947.4390780066558	55.10651827121508	-855.076576412265	911.8226380101064	218.8533227512741	-758.7998337523901	
